<svg xmlns="http://www.w3.org/2000/svg" viewBox="0 0 406.97 382.61"><defs><style>.cls-1{fill:#2a983e;}.cls-2{fill:#2a973e;}.cls-3{fill:#f7e04a;}.cls-4{fill:#10100b;}.cls-5{fill:#191e18;}.cls-6{fill:#222621;}.cls-7{fill:#262b26;}.cls-8{fill:#343833;}.cls-9{fill:#191d18;}.cls-10{fill:#acafac;}.cls-11{fill:#ecedec;}.cls-12{fill:#30342f;}.cls-13{fill:#303530;}.cls-14{fill:#2b2f2a;}.cls-15{fill:#2c302b;}.cls-16{fill:#cdcfcd;}.cls-17{fill:#010700;}.cls-18{fill:#030e03;}.cls-19{fill:#101304;}.cls-20{fill:#2a973d;}.cls-21{fill:#f8e049;}.cls-22{fill:#f9faf9;}.cls-23{fill:#d9dad9;}.cls-24{fill:#d7d9d7;}.cls-25{fill:#278f3a;}</style></defs><g id="Layer_2" data-name="Layer 2"><g id="Layer_1-2" data-name="Layer 1"><path class="cls-1" d="M122.45,313.68,4.8,312.37c-.67-45.6-1.34-90.93-2-136.83H122.45ZM79.61,211.27c-2.41,0-5.27-.84-6.29.17-2.12,2.11-3.92,1.3-6.15,1.05-4.34-.47-8.77-1.05-13.08-.64-6.42.61-11.17,4.5-13.84,10.22-2.85,6.11-2.68,12.27,1.53,18,3.78,5.15,9.43,7.09,15,9.32,4,1.6,8.17,2.86,11.75,5.1,4.07,2.55,3.68,9.54-.46,11.94-3.64,2.11-7.7,2.76-11.74.87a19.78,19.78,0,0,1-11.52-13.89c-.7-3-2.81-2.85-4.65-2.34-1.23.35-2.92,2-3,3.06-.31,5.78-.25,11.58-.08,17.37,0,1.07,1.08,2.93,1.78,3,2.63.23,5.84,1.49,7.11-2.41,6.59,3.33,13.15,5.31,20.34,3.39,5.55-1.48,11-3.46,14.08-8.61,6.45-10.59,3.65-23.5-9.73-28.39-4.71-1.72-9.45-3.36-14.14-5.12-3.83-1.44-6.24-5-5.71-8.23.58-3.51,3.85-6,8.19-6.16,6.55-.28,12.06,4,14,11.63.74,2.85,2.2,3,4.39,2.86,2.45-.18,3.31-1.65,3.18-3.91C80.27,223.58,80,217.59,79.61,211.27Z"/><path class="cls-2" d="M286,175.78l119.54,1.31c.46,46.4.92,92.57,1.39,139.24L286,313.7Zm67.54,68.93,4.78-2.29c6.65-3.26,9.85-8.91,9.95-16,.08-6.09-2.3-11.63-8.18-14.22a42.43,42.43,0,0,0-14.05-3.77c-9.14-.59-18.35-.11-27.53-.21-2.74,0-3.93,1.31-4.28,3.77-.39,2.72,1.27,3.54,3.56,4,5.32,1,5.66,1.47,5.67,6.88v38.75c0,7.08,0,7-6.64,8.93-1.07.32-2.57,2.15-2.41,3,.25,1.26,1.77,3.21,2.8,3.24,8.45.27,16.9.23,25.35,0,.88,0,2.21-1.58,2.48-2.64.92-3.65-2-3.61-4.35-4-2-.37-4.3-.15-4.27-3.22,0-5.56,0-11.11.06-16.66,0-.78.65-2.05,1.23-2.2a4.46,4.46,0,0,1,3,.54,6.9,6.9,0,0,1,1.9,2.16c5.59,8,11.11,16,16.83,23.9a6,6,0,0,0,4,2.2c4.45.28,8.93.11,13.4.1,1.82,0,3.68.24,3.95-2.49s-1-3.69-3.43-4.54c-2.72-.94-5.8-2.18-7.57-4.26C364.24,259.05,359.19,252,353.58,244.71Z"/><path class="cls-3" d="M144.76,311.68q-.64-67.86-1.28-134.81H263.6c-.64,45.66-1.28,90.76-1.92,136.17Zm92.58-66.42c-.93-2.53,2-6.42-3-6.51-8.34-.15-16.68,0-25,0-2.39,0-3.14,1.18-3.15,3.38s.36,3.32,2.94,3.45a13.59,13.59,0,0,1,6.4,1.84c2.14,1.38,2.1,13.28.3,15.27a3.85,3.85,0,0,1-1.2.74c-8.34,4.29-19.06,1.8-24-6.24-7.8-12.78-7.59-26.33-1.1-39.35,5.56-11.15,22.06-13.62,29.29.21a53.33,53.33,0,0,1,3.08,8.46c.69,2.22,2.18,3.53,4.24,2.62A5.48,5.48,0,0,0,229,225.3c.3-5.91.18-11.83.07-17.75-.07-4-2-5.83-5.42-3.94-3.61,2-6.08,0-9-.58-.89-.19-1.67-1.07-2.55-1.19-12-1.54-22.74,1.06-31.41,9.92-8.51,8.71-10.5,19.53-9.37,31.14,1.74,17.92,15.76,29,31.58,30.08,8.29.57,16-2.56,23.71-5.21,2.22-.76,3-2.24,2.88-4.7-.3-4.33-.19-8.68-.26-13,0-2.67,1.59-3.89,3.94-4.36C234.32,245.46,235.53,245.44,237.34,245.26Z"/><path class="cls-4" d="M182.11,46.49c-.51.84-1.09,1.66-1.54,2.53q-27.16,52-54.24,104.06c-1.43,2.76-3.06,3.75-6.14,3.73-31.79-.21-63.57-.27-95.36-.4-7,0-14-.09-21-.29-1.28,0-2.54-.83-3.81-1.27.71-1.36,1.09-3.18,2.19-4Q57.5,109,112.91,67.35c28.93-21.77,58-43.4,86.67-65.45,3.74-2.88,5.36-2.23,8.5.24q72.9,57.26,146,114.3,24.81,19.41,49.55,38.92c1.11.87,1.73,2.36,2.58,3.57-1.57.61-3.14,1.77-4.7,1.76-19.32-.2-38.64-.56-58-.9-18.35-.31-36.71-.7-55.07-.9-2.82,0-4.3-1.06-5.59-3.49q-25.92-49-52-97.92c-.53-1-1.13-1.95-1.71-2.93l-.9.35a17.57,17.57,0,0,0,.62,2.32Q248.4,105.31,268,153.4c1.72,4.23,1,5.46-3.61,5.41q-56.36-.63-112.71-1.33c-2.42,0-4.84,0-7.26,0-3.79-.07-4.36-.83-3-4.35,4-10.31,8.07-20.59,12.11-30.88Q167.76,86,182,49.75c.37-.94.6-1.93.9-2.9Zm45.29,7,1,.33-.23-1.19c-.24-.48-.49-1-.74-1.44L226.16,50l-.38.42c.32.46.64.91,1,1.36S227.18,52.89,227.4,53.46ZM143,155.12l123.72,1.45c-.59-1.63-1-3-1.57-4.29Q247,107.69,228.81,63.1q-9.12-22.26-18.64-44.36c-2.06-4.76-4.89-9.19-7.81-14.58C182.37,55,162.77,104.76,143,155.12ZM199.2,6.31l-.84-.5L2.53,153.23l.2.92c7.19,0,14.37,0,21.55,0q48.06.17,96.1.4a3.71,3.71,0,0,0,3.87-2.34q34.58-66.43,69.24-132.81C195.69,15.19,197.31,10.68,199.2,6.31ZM402.59,158.52l.27-1L205.46,3.06l-.61.81,81.27,152.72ZM182.18,45.76a4.37,4.37,0,0,0,.73.75c.05,0,.48-.28.48-.43a2.55,2.55,0,0,0-.28-.86Z"/><path class="cls-5" d="M288.73,357.62l-1.61.4c-.26.59-.53,1.18-.8,1.77q0,8.18,0,16.37l3.1,4.18a29.85,29.85,0,0,1-12.25-.25c1.69-1.5,3.66-2.4,3.76-3.47.38-4.1.15-8.25.15-12.38l-1-.2q-.94,2.58-1.87,5.15c-.13.44-.25.88-.38,1.32l-1.08,2.32-.35,1.31-4.14,7.28c-2.42-6.16-4.45-11.31-6.47-16.46l-1,.35c.22,5-2.46,10.57,3.5,14.36-3,1.71-8.68,1.51-11-.59,4.79-.86,4.59-4.27,4.45-7.77-.13-3.13.18-6.28-.1-9.39-.12-1.31-1.24-2.53-1.9-3.79l-2.18-.7.86-2.71c8.74-.36,8.72-.35,11.81,7.91a28.88,28.88,0,0,0,4.06,7.75c1.65-4.21,3.61-8.34,4.82-12.68.79-2.8,2.2-3.32,4.63-3.09,1.2.12,2.5-.25,3.6.11.85.27,1.46,1.32,2.17,2Z"/><path class="cls-6" d="M206.49,367.21a13.63,13.63,0,0,1,2.35,1.55c3.62,3.6,2.9,8.79-1.53,11.22-5.05,2.78-10.57,1.78-15.94,1.77-.75,0-1.5-1.26-2.67-2.31,4.13-1.25,3.93-4.13,3.81-7.09-.13-3.14,0-6.28,0-9.43,0-2.2.71-4.78-2.5-5.57.25-.88.5-2.54.75-2.53,4.8,0,9.77-.45,14.36.63C210.7,356.77,211.23,361.38,206.49,367.21Zm-8.35,5.71c.25,2.17-.86,5,2.67,5.33,2.33.23,4.49-2.1,4.32-4.63-.18-2.8-1.37-4.81-4.53-4.95C196.9,368.5,198.61,371.35,198.14,372.92Zm-1.07-11.25c1.28,1.67,2,3.64,3.1,3.82,2.48.42,3.57-1.56,3.63-3.83s-1.46-4.05-3.71-3.84C199.12,357.91,198.33,360,197.07,361.67Z"/><path class="cls-7" d="M227.62,378.84c4.13-.57,4.74-3.13,4.52-6.55-.25-4,0-8-.09-12,0-.83-.5-2.29-.89-2.33a6.78,6.78,0,0,0-2.9.78c-1.92.75-1.7,5.26-4.29,3.54-1.38-.92-.86-4.7-1.25-7.5H246.1c0,2.08.07,4.09,0,6.09,0,.61-.59,1.68-.92,1.69a3.69,3.69,0,0,1-2.12-.87c-1.57-1.25-3.05-2.63-4.57-4a47,47,0,0,0-1.06,5.93c-.18,3.13,0,6.28,0,9.42,0,2.25-.58,4.77,2.83,5.28.36,0,.9,1.22.76,1.7-.21.68-.94,1.67-1.48,1.7-3.26.13-6.53.12-9.78-.06-1-.05-2-.8-2.94-1.23C227,380,227.33,379.4,227.62,378.84Z"/><path class="cls-8" d="M136,362.43h8.25c.13,1.53.24,2.79.35,4.05l1,1.15,1.18-1.29c-.09-1.15-.18-2.29-.26-3.41,4.91-1.47,7.23-.93,7.73,1.73l-.56.64c-6.49,2.54-6.84,7.4-1,12.4.83.7,1.2,1.94,1.79,2.93a18.52,18.52,0,0,1-3.32,1.23c-1.17.22-2.64.45-3.55-.07a6.28,6.28,0,0,1-2.06-3,15.07,15.07,0,0,1-.6-3.33h-1.59c-.2,1-.8,2.21-.52,3.11.73,2.34.21,3.41-2.34,3.4q-12.75-.06-25.51,0c-1.45,0-2.71,0-2.53-2,5.54,0,11.09-.12,16.62.12a6.09,6.09,0,0,0,5.46-2.3c3,2.07,3.67-1.11,5-2.37s3.35-2.87,1.56-5.22c-1.22-1.61-2.71-3-3.88-4.66A13.34,13.34,0,0,1,136,362.43Z"/><path class="cls-9" d="M134.6,377.75a6.09,6.09,0,0,1-5.46,2.3c-5.53-.24-11.08-.11-16.62-.12,0-.36-.06-1,0-1,4.29-.88,3.27-4.24,3.31-7.07s.05-5.8,0-8.7c0-2.31.74-5-2.85-5.7-.37-.07-.48-1.57-.8-2.75h20.35c.33.68.66,1.36,1,2,0,1.7-.05,3.39-.08,5.09l-2.85.61c-.38-.75-.73-1.51-1.15-2.24-1.69-2.94-4.59-3.29-7.22-2.37-.94.33-1.29,3.1-1.39,4.78-.07,1.08.78,2.22,1.23,3.33,1.37-.63,2.72-1.33,4.13-1.88a25.92,25.92,0,0,1,3-.79l-.56,9.59a4.49,4.49,0,0,1-2.57-1.7c-.36-.47-.49-1.32-.93-1.49a5.44,5.44,0,0,0-3-.49c-.56.15-1.13,1.37-1.2,2.14-.5,6.3,1.35,8.37,6.55,6.73,1.86-.58,3.13-3,4.67-4.59l2.31-.13C134.52,374.79,134.56,376.27,134.6,377.75Z"/><path class="cls-10" d="M259.74,358.13c.66,1.26,1.78,2.48,1.9,3.79.28,3.11,0,6.26.1,9.39.14,3.5.34,6.91-4.45,7.77,2.33,2.1,8,2.3,11,.59-6-3.79-3.28-9.36-3.5-14.36l1-.35c2,5.15,4.05,10.3,6.47,16.46l4.14-7.28,1,2.87c2.41-.87,3.62-6.29,1.86-7.89-.18-.16-.69,0-1,.07q.93-2.56,1.87-5.15l1,.2c0,4.13.23,8.28-.15,12.38-.1,1.07-2.07,2-3.76,3.47a29.85,29.85,0,0,0,12.25.25l-3.1-4.18a9.84,9.84,0,0,1,2.73,1.69,4.38,4.38,0,0,1,.84,2.82,2.2,2.2,0,0,1-1.61,1.44,89.54,89.54,0,0,1-10.1,0c-.92-.07-1.75-1.29-2.78-2.12-1.47.73-2.81,4.42-4.15,1.64-5,.2-9.12.43-13.27.46a2.21,2.21,0,0,1-1.54-1.5c0-.82.35-2.2.93-2.44,3.35-1.4,3.36-3.76,2.71-6.8-.44-2.08-.06-4.32-.1-6.48S259.82,360.36,259.74,358.13Z"/><path class="cls-11" d="M130.6,362.42l2.85-.61,2.58.62a13.34,13.34,0,0,0,1.2,3.07c1.17,1.64,2.66,3.05,3.88,4.66,1.79,2.35-.22,3.91-1.56,5.22s-2,4.44-5,2.37c0-1.48-.08-3-.13-4.44l-2.31.13c-1.54,1.59-2.81,4-4.67,4.59-5.2,1.64-7-.43-6.55-6.73.07-.77.64-2,1.2-2.14a5.44,5.44,0,0,1,3,.49c.44.17.57,1,.93,1.49a4.49,4.49,0,0,0,2.57,1.7l.56-9.59Z"/><path class="cls-12" d="M171.69,368.76a12.93,12.93,0,0,1,3.58.08c.88.28,1.54,1.27,2.29,1.94-.77.85-1.45,2.32-2.33,2.45a28.41,28.41,0,0,1-7.54,0c-.87-.12-1.54-1.63-2.31-2.5.78-.67,1.47-1.67,2.36-1.9A15.74,15.74,0,0,1,171.69,368.76Z"/><path class="cls-13" d="M222.33,378.16,217.77,382c-1.06-1.26-2.59-2.38-3-3.81-.19-.68,1.8-2.72,2.83-2.74C218.91,375.44,220.22,376.86,222.33,378.16Z"/><path class="cls-14" d="M255.75,378.5,251.16,382c-.9-1.26-2.52-2.53-2.49-3.77,0-1,1.93-2.61,3.15-2.76C252.78,375.36,254,377.05,255.75,378.5Z"/><path class="cls-15" d="M300.13,378.22,296.27,382l-3.35-3.7c1.15-1,2.17-2.48,3.5-2.83C297.17,375.26,298.42,376.88,300.13,378.22Z"/><path class="cls-10" d="M258.42,354.72l-.86,2.71-1.22-1.6Z"/><path class="cls-16" d="M133.53,356.72c-.32-.68-.65-1.36-1-2Z"/><path class="cls-10" d="M286.32,359.79c.27-.59.54-1.18.8-1.77C286.86,358.61,286.59,359.2,286.32,359.79Z"/><path class="cls-16" d="M153.74,365.3l.56-.64c.17.34.33.69.49,1Z"/><path class="cls-16" d="M146.83,366.34l-1.18,1.29-1-1.15Z"/><path class="cls-10" d="M288.73,357.62l.78-.87c0,.37.06.74.08,1.1Z"/><path class="cls-17" d="M79.61,211.27c.34,6.32.66,12.31,1,18.3.13,2.26-.73,3.73-3.18,3.91-2.19.16-3.65,0-4.39-2.86-2-7.63-7.48-11.91-14-11.63-4.34.19-7.61,2.65-8.19,6.16-.53,3.23,1.88,6.79,5.71,8.23,4.69,1.76,9.43,3.4,14.14,5.12,13.38,4.89,16.18,17.8,9.73,28.39C77.25,272,71.85,274,66.3,275.5c-7.19,1.92-13.75-.06-20.34-3.39-1.27,3.9-4.48,2.64-7.11,2.41-.7-.06-1.75-1.92-1.78-3-.17-5.79-.23-11.59.08-17.37.06-1.11,1.75-2.71,3-3.06,1.84-.51,3.95-.67,4.65,2.34A19.78,19.78,0,0,0,56.3,267.33c4,1.89,8.1,1.24,11.74-.87,4.14-2.4,4.53-9.39.46-11.94-3.58-2.24-7.78-3.5-11.75-5.1-5.54-2.23-11.19-4.17-15-9.32-4.21-5.76-4.38-11.92-1.53-18,2.67-5.72,7.42-9.61,13.84-10.22,4.31-.41,8.74.17,13.08.64,2.23.25,4,1.06,6.15-1.05C74.34,210.43,77.2,211.27,79.61,211.27Z"/><path class="cls-18" d="M353.58,244.71c5.61,7.31,10.66,14.34,16.25,20.92,1.77,2.08,4.85,3.32,7.57,4.26,2.45.85,3.69,1.82,3.43,4.54s-2.13,2.48-3.95,2.49c-4.47,0-8.95.18-13.4-.1a6,6,0,0,1-4-2.2c-5.72-7.88-11.24-15.93-16.83-23.9a6.9,6.9,0,0,0-1.9-2.16,4.46,4.46,0,0,0-3-.54c-.58.15-1.22,1.42-1.23,2.2-.1,5.55,0,11.1-.06,16.66,0,3.07,2.31,2.85,4.27,3.22,2.31.44,5.27.4,4.35,4-.27,1.06-1.6,2.61-2.48,2.64-8.45.19-16.9.23-25.35,0-1,0-2.55-2-2.8-3.24-.16-.84,1.34-2.67,2.41-3,6.61-1.95,6.64-1.85,6.64-8.93V222.84c0-5.41-.35-5.88-5.67-6.88-2.29-.43-3.95-1.25-3.56-4,.35-2.46,1.54-3.8,4.28-3.77,9.18.1,18.39-.38,27.53.21a42.43,42.43,0,0,1,14.05,3.77c5.88,2.59,8.26,8.13,8.18,14.22-.1,7.09-3.3,12.74-9.95,16ZM336,228.51c0,3.13-.15,6.28.1,9.39a3.6,3.6,0,0,0,2,2.69c4.76,1.15,10.85-1.53,13.51-5.63,2.86-4.41,3.05-11.12.42-14.65-2.78-3.73-8.9-5.62-14.12-4.07-.84.25-1.71,1.85-1.79,2.89C335.82,222.24,336,225.38,336,228.51Z"/><path class="cls-19" d="M237.34,245.26c-1.81.18-3,.2-4.19.43-2.35.47-4,1.69-3.94,4.36.07,4.34,0,8.69.26,13,.17,2.46-.66,3.94-2.88,4.7-7.7,2.65-15.42,5.78-23.71,5.21-15.82-1.1-29.84-12.16-31.58-30.08-1.13-11.61.86-22.43,9.37-31.14,8.67-8.86,19.42-11.46,31.41-9.92.88.12,1.66,1,2.55,1.19,2.94.62,5.41,2.59,9,.58,3.41-1.89,5.35-.07,5.42,3.94.11,5.92.23,11.84-.07,17.75a5.48,5.48,0,0,1-2.85,3.79c-2.06.91-3.55-.4-4.24-2.62a53.33,53.33,0,0,0-3.08-8.46c-7.23-13.83-23.73-11.36-29.29-.21-6.49,13-6.7,26.57,1.1,39.35,4.91,8,15.63,10.53,24,6.24a3.85,3.85,0,0,0,1.2-.74c1.8-2,1.84-13.89-.3-15.27a13.59,13.59,0,0,0-6.4-1.84c-2.58-.13-3-1.36-2.94-3.45s.76-3.4,3.15-3.38c8.33,0,16.67-.11,25,0C239.38,238.84,236.41,242.73,237.34,245.26Z"/><path class="cls-20" d="M143,155.12c19.81-50.36,39.41-100.16,59.4-151,2.92,5.39,5.75,9.82,7.81,14.58q9.57,22.07,18.64,44.36,18.25,44.55,36.3,89.18c.54,1.31,1,2.66,1.57,4.29Z"/><path class="cls-21" d="M199.2,6.31c-1.89,4.37-3.51,8.88-5.71,13.1q-34.56,66.44-69.24,132.81a3.71,3.71,0,0,1-3.87,2.34q-48-.27-96.1-.4c-7.18,0-14.36,0-21.55,0l-.2-.92L198.36,5.81Z"/><path class="cls-21" d="M402.59,158.52l-116.47-1.93L204.85,3.87l.61-.81,197.4,154.45Z"/><path class="cls-22" d="M226.75,51.75c-.33-.45-.65-.9-1-1.36l.38-.42,1.27,1.19Z"/><path class="cls-22" d="M182.18,45.76l.93-.54a2.55,2.55,0,0,1,.28.86c0,.15-.43.46-.48.43A4.37,4.37,0,0,1,182.18,45.76Z"/><path class="cls-22" d="M227.43,51.16c.25.48.5,1,.74,1.44l-.77.86c-.22-.57-.44-1.14-.65-1.71Z"/><path class="cls-22" d="M228.17,52.6l.23,1.19-1-.33Z"/><path class="cls-22" d="M278.2,369.19c.35,0,.86-.23,1-.07,1.76,1.6.55,7-1.86,7.89l-1-2.87.35-1.31,1.08-2.32C278,370.07,278.07,369.63,278.2,369.19Z"/><path class="cls-10" d="M277.82,370.51l-1.08,2.32Z"/><path class="cls-23" d="M198.14,372.92c.47-1.57-1.24-4.42,2.46-4.25,3.16.14,4.35,2.15,4.53,4.95.17,2.53-2,4.86-4.32,4.63C197.28,377.91,198.39,375.09,198.14,372.92Z"/><path class="cls-24" d="M197.07,361.67c1.26-1.69,2.05-3.76,3-3.85,2.25-.21,3.77,1.43,3.71,3.84s-1.15,4.25-3.63,3.83C199.11,365.31,198.35,363.34,197.07,361.67Z"/><path class="cls-16" d="M130.6,362.42l-1.37.83a25.92,25.92,0,0,0-3,.79c-1.41.55-2.76,1.25-4.13,1.88-.45-1.11-1.3-2.25-1.23-3.33.1-1.68.45-4.45,1.39-4.78,2.63-.92,5.53-.57,7.22,2.37C129.87,360.91,130.22,361.67,130.6,362.42Z"/><path class="cls-8" d="M132.16,373.44l2.31-.13Z"/><path class="cls-25" d="M336,228.51c0-3.13-.15-6.27.09-9.38.08-1,.95-2.64,1.79-2.89,5.22-1.55,11.34.34,14.12,4.07,2.63,3.53,2.44,10.24-.42,14.65-2.66,4.1-8.75,6.78-13.51,5.63a3.6,3.6,0,0,1-2-2.69C335.82,234.79,336,231.64,336,228.51Z"/></g></g></svg>